<svg id="visual" viewBox="0 0 900 600" width="960" height="540" xmlns="http://www.w3.org/2000/svg" xmlns:xlink="http://www.w3.org/1999/xlink" version="1.1"><path d="M0 64L14.5 59.7C29 55.3 58 46.7 87.2 41C116.3 35.3 145.7 32.7 174.8 40.8C204 49 233 68 262 74.3C291 80.7 320 74.3 349 63.5C378 52.7 407 37.3 436.2 30.7C465.3 24 494.7 26 523.8 25.7C553 25.3 582 22.7 611 26.7C640 30.7 669 41.3 698 41C727 40.7 756 29.3 785.2 35C814.3 40.7 843.7 63.3 872.8 66C902 68.7 931 51.3 945.5 42.7L960 34L960 0L945.5 0C931 0 902 0 872.8 0C843.7 0 814.3 0 785.2 0C756 0 727 0 698 0C669 0 640 0 611 0C582 0 553 0 523.8 0C494.7 0 465.3 0 436.2 0C407 0 378 0 349 0C320 0 291 0 262 0C233 0 204 0 174.8 0C145.7 0 116.3 0 87.2 0C58 0 29 0 14.5 0L0 0Z" fill="#0066FF" stroke-linecap="round" stroke-linejoin="miter"></path></svg>